<?xml version="1.0" encoding="utf-8"?>
<!-- Generator: Adobe Illustrator 26.3.1, SVG Export Plug-In . SVG Version: 6.00 Build 0)  -->
<svg version="1.1" id="Layer_1" xmlns="http://www.w3.org/2000/svg" xmlns:xlink="http://www.w3.org/1999/xlink" x="0px" y="0px"
	 viewBox="0 0 64 64" style="enable-background:new 0 0 64 64;" xml:space="preserve">
<style type="text/css">
	.st0{font-family:'Arial-BoldMT';}
	.st1{font-size:14.943px;}
</style>
<path d="M19.1,1.3l-3.2,9.6c-4.8,0-6.4,8.8-6.4,14.5v1.4c-0.1,0.9-0.1,1.9-0.1,2.8V35c-0.8,1.2-1.9,3.3-1.9,5.9
	c0,3.1,1.1,5.6,3.5,7.8c12,14.7,19,13.9,19,13.9l5.8,0.1c0,0,7.7-1,16.6-14c2.7-2.2,4.2-5,4.2-7.8c0-2.6-1.1-4.8-1.8-5.9l-0.1-5.4
	c0-0.9-0.1-1.9-0.1-2.8v-1.4C54.5,7.7,44.9,1.3,19.1,1.3z M19.1,18.7c0,0,5.6,1.6,12.9,1.6s14.5-1.6,14.5-1.6
	c1.9,1.9,2.7,6.1,3.1,9.9c0,0.4,0,0.8,0,1.1l0.1,6.2l0,0.9l0.5,0.7c0.3,0.4,1.2,1.9,1.2,3.5c0,2-1.9,3.7-2.7,4.3l-0.6,0.5l-0.3,0.7
	C42.7,58.2,36.6,58.3,35,59.1l-5-0.3c-2.2-1.2-11.7-4.7-14.5-12.5l-0.2-0.7l-0.5-0.4c-1.6-1.3-2.2-2.5-2.2-4.3
	c0-1.8,1.3-3.4,1.3-3.4l0.6-0.7v-5.7C14.8,26.9,15.9,21.4,19.1,18.7z"/>
<text transform="matrix(1.0874 0 0 1 17.4269 43.947)" class="st0 st1">dev</text>
</svg>
